<svg id="Capa_1" data-name="Capa 1" xmlns="http://www.w3.org/2000/svg" viewBox="0 0 2232.89 1276.44"><defs><style>.cls-1{fill:#394951;}</style></defs><path class="cls-1" d="M1898.36,951.29c-22-11-37.79-34.15-65.52-34.14-112.62,0-225.24.18-337.85-.19-14-.05-21.72,4.8-25.28,18.54-5.63,21.75-12.52,43.17-18.69,64.78-3,10.51-3,22.59-19.69,21.61-7.8-.46-6.15,8.08-6.4,13.26-1.27,27,4.62,51.27,19.54,75.07,19.74,31.52,45.53,48.39,82.38,48.67,20.41.16,40.84-.44,61.23.19,34.42,1.07,63.88-8.24,84.08-38,5.58-8.24,10.16-8.58,17.9-1.69,30,26.74,106.89,34.67,143.52,17.27,64-30.4,78.13-121.14,40.43-172.52,8.17-.82,14.67-.54,20.51-2.36C1898.77,960.41,1905,954.61,1898.36,951.29ZM1670.05,1040c0,26.11-4.06,49-22.64,62.34-30,21.58-46.41,20.52-73.52-3-23-19.95-22.6-50.24-17.86-78.76,4.09-24.71,18.91-41.38,42.66-49.51,19.11-6.55,45.67,3,57.24,20.54C1666.24,1007.3,1671,1024.68,1670.05,1040Zm173,49.28c-25.7,16.92-40.49,19.09-64.8,1-35.94-26.82-25.12-100.78,3-119.36,30.76-20.33,74.6.61,81.91,32.32,2.19,9.54,3.77,19.22,5.45,27.92C1864.28,1053.34,1864.45,1075.19,1843,1089.3Z"/><path class="cls-1" d="M855.51,986.46c-32.41-24.92-68.68-29.6-102.15-28-26.17.1-47.33-1.27-68,4.13-11.53,3-20,7.33-26.8,20-15,27.89-14.14,57.79-17.18,87.24-1.79,17.33,6.14,41-2.63,50.89-10.47,11.77-34.32,2.27-52.36,2.42-8.58.07-10.81,2.55-9.14,11.13,5.79,29.67,21.31,54.76,41.24,75.74A130.4,130.4,0,0,0,657,1237.9c42.88,20.22,87.55,16.53,132.31,13.39,55.68-3.91,109.25-53.43,121.67-105.61C925.46,1084.63,909.92,1028.31,855.51,986.46Zm-67.63,212.77c-49.18-1.35-86.27-41.28-86.11-94.35-2.58-52.24,41.72-92.09,87.37-92.68,44.79-.58,87.8,47.23,87.36,94.1C876.07,1153,833.55,1200.48,787.88,1199.23Z"/><path class="cls-1" d="M1156.52,1000c-17.43-14.54-36.94-17.27-54.94-16.33-14.08.05-25.46-.74-36.57,2.41l-.87.26h0c-63.48,13.45-57.55,90-57.55,90,0,1.95,0,3.86.2,5.7a9.35,9.35,0,0,0,.08,4.17,82.64,82.64,0,0,0,4.37,15.48c.31.8.49,1.23.49,1.23h0a98.14,98.14,0,0,0,17.32,27.49,70.73,70.73,0,0,0,20.68,16.29c23.07,11.8,47.09,9.64,71.16,7.81,29.95-2.28,58.76-31.18,65.44-61.63C1194.14,1057.29,1185.78,1024.44,1156.52,1000Zm-36.38,124.16c-26.44-.79-46.39-24.09-46.3-55.06-1.39-30.48,22.43-53.74,47-54.08,24.09-.34,47.22,27.56,47,54.91S1144.71,1124.9,1120.14,1124.17Z"/><path class="cls-1" d="M1290.82,984.39c-.31-15-.46-30.07.07-45.09.36-10-7.23-13.82-23.06-13.69-33,.27-66.11.08-99.17.08s-66.11.14-99.16-.06c-17.44-.1-26,4.22-25.42,15.39.74,14.59.19,29.2.26,43.8.08,16.3,2.62,18.2,28.78,17.63,65.35-1.43,130.66-3.36,196-4.77C1284.11,997.35,1291,993.58,1290.82,984.39Z"/><path class="cls-1" d="M300.72,1100.6c3.53,43.2,61.28,87.73,115.57,90,83.74,3.42,129.58-19.61,150.22-68.39-44.66-1.85-88.72-4.49-132.81-5.27C389.35,1116.12,346.31,1105.87,300.72,1100.6Z"/><path class="cls-1" d="M2201.42,586.12c-26-17.49-50.87-36.65-76.41-54.84-64.67-46-129.53-91.84-194.15-138-38-27.14-75.58-55-113.69-82-61.89-43.92-124.11-87.38-186.12-131.14-41.51-29.29-82.84-58.84-124.4-88.05-6.86-4.83-10.08-10.09-10.36-19-.89-28.4-22.8-44.33-50-37.6-15,3.7-30,7.08-45,10.65C1340.52,60.66,1279.68,75,1219,89.81c-10.2,2.49-21.09,3.44-24,18.75-11.69,62-33.19,121.49-47.87,182.75-4.87,20.3-9.51,40.46-17.54,60.08-7.19,17.57-9.35,37.2-14.2,57.89,74.69-11.87,146-23.24,217.35-34.51,7.14-1.12,12.88-2.21,15.91-10.82,22.34-63.45,45.29-126.69,68-190,6.87-22.8,10-47.11,27.73-65.73l.11-.11c.88-.93,1.79-1.84,2.75-2.74l-26.07,73.18h0c-9.26,47.92-31.55,92-41.28,139.85-2.55,12.57-5.73,25-13,36.77-5.63,9-10.75,20.46,7.54,29.77,30.91,15.72,58.79,37.31,88.29,55.87,38.75,24.39,78.09,47.85,116.72,72.43,42.85,27.27,85.18,55.35,127.74,83.08L1703.3,600Q1557.14,512,1411,424c-34.5-20.78-66.82-41.22-112.34-31.7-56.42,11.81-114.64,15-177.46,22.58,68.11,34.79,131.35,66.88,194.39,99.37,62.72,32.33,125,65.54,188.12,97.07,8.45,4.22,18.29,15.53,30.41,5.56,16.38-11.19,33.13-21.9,49-33.75,10.79-8.06,20-9,28.85,2.82-32-4.87-46.39,28.1-73.55,35.15-19,18.86-43.17,30.49-64.33,46.31-25,18.69-53.77,30.19-80.61,45-52.23,28.71-99.59,66.44-148.21,101.48-24.92,17.95-49.8,32.71-82.33,26.94-7.15-1.27-15.33-2.18-22.25,3.36-22.94,18.36-49.73,12.19-81.93,13.26,41.13-27.91,78.4-50.76,112.71-77.43,19-14.74,47.11-21.38,52.82-50.53.32-1.62,2.94-2.92,4.66-4.11,33.26-22.93,66.62-45.71,99.76-68.82,8.48-5.91,15.6-6.1,24.89-.66,19.87,11.64,40.6,21.82,61.05,32.45,3.46,1.8,6.55,5.34,11.4,2,23.61-16.37,47.39-32.5,73.51-50.35-17.39-9-31-16.15-44.67-23.09-62.94-31.94-126-63.65-188.84-95.76-64.1-32.75-128-65.86-192-98.82l-5.26-9.09c11.38-61.37,34.92-119.42,49.14-180,10-42.42,30-82,35.15-128.24-42.58,10-84,19.78-125.36,29.42-8.14,1.9-7.7,8.67-9.51,14.63-8.46,27.83-16.1,56.08-23.47,84-16.37,62.09-36,123.29-51.14,185.69-3,12.47-2.07,20.47,10.84,26.74,24.5,11.91,48.15,25.58,72.25,38.33,87.59,46.34,175.31,92.43,262.69,139.16,9.76,5.22,17.07,8.33,26-.8,7.54-7.73,17-8.91,27.2-3.68-5.49,5.79-13.24,2-19.54,6.07-49.31,31.43-93.3,70.38-149.1,92.91-34.05,13.75-62.74,40.87-93.68,62.23-35.53,24.54-69.67,51.41-106.83,73.15-18.26,10.69-44.66,10.18-63,1-55-27.58-54.18-29.3-58.49-91.92-.2-2.8-.28-5.62-.42-8.43-4.85-101.86-10.15-203.72-14.16-305.62-.75-19-8.14-27-26.14-27.32-4.92-.09-9.81-.88-14.73-1.16-82.82-4.82-165.7-8.86-248.43-15-19.74-1.46-42.45,4.85-59-9.21-15.59-13.23-32-12-49.13-10-69.95,8.2-138.27,24.1-205,46.17-32.79,10.84-67.54,18.34-88.95,51-5.52,8.42-12.74,16.95-10.54,25.24,2,7.72,13.58,2,20.75,3.47,3.14.65,7-1.09,9.58,3.32-6.61,20.86-19.82,39.05-28.38,59.14C120.15,613.93,97.5,651.68,82.17,693,76.51,708.21,65,721.3,65,738.77c0,71.07.17,142.13-.22,213.19-.06,10.93,3.46,14.84,14.41,15,16.85.2,33.68,1.95,50.52,3,82.8,5.19,165.6,10.24,248.39,15.64,14.16.93,19-4,20.05-18.76,3.42-49.06,8.73-98,13.32-147,5.27,5.07,2,12.11,4.13,17.91h0c-1.76,42.85-2.7,85.77-5.7,128.54-1.13,16.1,4.19,18.66,18.47,17.68,49.13-3.36,98.32-5.83,147.51-8,6.07-.27,16.23-6,17.13,7.8.77,11.83-7.34,11.65-15.06,12.29-115.86,9.67-231.6,13-347.5-1.07-55.1-6.68-110.68-9.29-166-14.31-12.89-1.17-18.59,2.59-17.07,16a59.44,59.44,0,0,1,0,16.85c-3.56,20.12,6.88,27,24.86,29.74,28.43,4.34,56.82,9.4,84.91,15.58,150.19,33,302.22,49.2,455.88,51.46,10.87.16,14.94-2.31,14.83-13.75-.17-17.55,1.2-35.14,2.41-52.68,3.24-47,16.5-90.78,46.16-127.94,12.87-16.14,28-36,49-36.43,59-1.3,122.29-22.85,173,28.27.48.48,1.21.69,1.73,1.14,27.5,23.39,52.09,47.52,51.08,88.45-.86,35.1,2.76,70.29,3.71,105.45.3,11.09.93,18.84,15.47,18.77,14.93-.07,15-8.64,14.92-19.29-.32-36.6,1.44-73.32-1.1-109.75-1.52-21.78,5.72-27.47,25.15-24.19,14.78,2.5,20.9-1.92,20.57-18.8-.43-21.23,15-35.41,35.84-35.53q103.47-.57,206.94.07c20,.14,32.84,14.6,33.23,34.53.38,18.87,11.82,25.52,29.06,18.69,7.7-3.05,3.31-14.6,12.65-14.67,2.93,18.67-8.13,44.29,4.66,54.23,12,9.31,36.31,2.71,55.21,3.07,4.22.08,8.48-.31,12.67.07,13.15,1.2,20.38-3.63,23.58-17.43,5.56-23.92,13.63-47.26,19.52-71.12,2.88-11.7,8.43-15.12,20.41-15.07,117.55.5,235.09.34,352.64.33,7.79,0,14.9.84,22,5.27,20.1,12.5,40.73,24.16,61.27,35.93,7.93,4.54,11.83,10.34,12.15,20.09.66,20.36,3.31,40.64,4.29,61,.64,13.28,9.61,10.82,17.89,11.5,9.72.8,11.74-3.72,11.58-12.38-.42-23.93-1-47.91.14-71.78.81-17.15-4.73-29.72-19-39-3.11-2-7.37-4.34-4.89-11.58,26,0,52.54.16,79.06-.16,4.59-.06,12,3.3,11.9-6.68-.2-22.66-22-44.42-45-44.42q-183.72,0-367.42-.1c-8.84,0-18.87,2.84-25.38-6.18-7.71-10.68-18.5-10.68-30.08-10.64q-120.36.36-240.73,0c-5.73,0-12.39,2.82-18.19-3.45,19.78-18.31,43.09-30.91,64.43-46.2,23.19-16.63,49-30.89,68.41-51.17,24.47-25.52,21.67-26.76,51.36-10.43q91.83,50.49,184.75,99c17.65,9.25,35,17.52,57.1,17.14,92.18-1.59,184.41-.42,276.61-1,12.92-.07,21.81,1.93,24.13,16.13,1.67,10.18,8,12.93,18,12.6,22.5-.75,45-.23,67.57-.23,35.91,0,35.58-.06,41.77-35,11.85-66.83,15.7-134.9,32.24-201.09,3.62-14.47,7-19.06,20.81-11.66C2215.74,607,2215.14,595.35,2201.42,586.12ZM312.48,813.46c-2.59,18.75-3.75,37.68-10.69,55.63-9.21,23.83-22,33.9-47.42,33.14-44.21-1.32-88.32-4.38-132.27-9.83-14.37-1.78-21.25-8.9-23.75-22.08-.39-2.07-.56-4.18-.95-6.25-11.57-61.44-8.75-65,52.12-65h54.8c31.62,0,63.24.4,94.84-.22C310.48,798.68,314,802.29,312.48,813.46Zm126.4-330.65c-12.49,48-32.3,93.36-47.24,140.44-4.92,15.5-15,29.31-22.32,44.13-2.81,5.72-6.58,8.22-12.91,8.77-79.69,6.87-159.36,13.94-242.83,21.3,22.59-62,46.37-120.21,72.65-177.47,3.8-8.28,11.16-10.43,18-13.22,70.18-28.74,143-44.08,219.1-44.1C439.67,462.66,443.2,466.24,438.88,482.81ZM736.17,724.42c-.48,17.54-13.26,10.33-21.26,10.9s-19,4.65-18.81-11.19c.22-18.29,14.18-7.53,19.88-11.59C725,714.51,736.61,708.25,736.17,724.42ZM585,658.46c-13.21-.23-20.65,3.42-24.29,17-5.49,20.5-17.14,34.33-41.51,29.85-4.76-.88-9.82-.13-14.75-.13-43.74,0-44.77,0-43.23-42.81,1.37-37.91,13.64-73.36,27.59-108.57,9.24-23.33,14-48.51,19.91-73.06,3.06-12.69,8.3-18.53,22.86-17.78,28,1.46,56.2.43,84.31.43,0,2.3,0,4.59,0,6.89,28.82,0,57.64.29,86.46-.11,17.32-.23,25,6,24.5,24.82-1.13,46.42-1.3,92.9.06,139.3.6,20.3-7.66,25.06-25.81,24.66C662.44,658.11,623.72,659.15,585,658.46Zm74.33,177.69L599.77,951.66C615.56,911.05,634.34,872,659.36,836.15Zm1351.9-328.87Q1874.8,418,1738.39,328.65c-62.35-41-123.56-83.88-186.94-123.24-16.89-10.49-34-38-53-25.79-14.79,9.46-19.5,36.61-30.31,55.23-9.79,16.88-14.6,36.64-24.3,53.59-9.09,15.89-18.66,31.5-27.21,48.06,7.52-25.88,11.46-52.14,21.78-77.51,12.86-31.62,19.69-65.78,27.93-99.14,3-12.25,6.13-26.91,14.44-33.2,11.4-8.63,19,8.68,27.57,14.34,39.53,26,77.58,54.31,116.23,81.69,52.81,37.41,105.79,74.58,158.48,112.15,38,27.11,75.55,54.9,113.56,82,40.8,29.12,81.89,57.83,122.86,86.72l48.17,34.32C2044.85,534.2,2029.62,518.05,2011.26,507.28Z"/><path class="cls-1" d="M1618.78,1002.54c-17.53-.38-29.7,16.21-29.79,40.62s11.61,41.1,29.12,41.25c15.61.13,33.09-22.05,32.81-41.61C1650.66,1024.37,1633.49,1002.86,1618.78,1002.54Zm6,67.42c-11.25,0-19.42-10.72-19.94-24.7-.58-15.62,6.85-27.89,20.64-28.3,13.09-.39,14.54,14.36,15,26.36C1640.08,1054.9,1639.9,1070,1624.83,1070Z"/><path class="cls-1" d="M1813.71,995.58c-15.86.5-20.83,12.34-24.37,24.56a48.67,48.67,0,0,0,1.93,32.73c9.13,22.08,25.31,24.94,42.77,7.46,10.15-13.09,12-27.14,4.86-42.23C1835.89,1004.57,1829.27,995.1,1813.71,995.58Zm17.42,58.47-.69-.32-.85-.18c.09.88.19,1.76.32,2.65-10.75,6.3-20,2.52-23.82-7.53-4.77-12.45-6.77-27,5.86-36.52,7.9-5.94,17.36-4.94,22.65,5.84l-.54,1.71a8.11,8.11,0,0,0,1,0C1838.13,1031.66,1837,1043.15,1831.13,1054.05Z"/><path class="cls-1" d="M793.54,1051.57c-29.08-1.53-52.54,25.25-52.53,58.2,0,31.16,23.15,59.06,50.46,58.46,27.68-.62,52.56-20.48,52-58.46C844,1074.49,822.06,1053.08,793.54,1051.57ZM803,1150c-18.57,0-31.76-16.23-32-39.4-.25-23.83,14.12-41.68,33-41,16.16.56,32.48,20.55,32.66,40C836.87,1131.89,821.81,1150,803,1150Z"/><path class="cls-1" d="M1121.49,1035.58c-15.64-.89-28.25,14.74-28.25,34,0,18.19,12.45,34.47,27.14,34.12,14.88-.36,28.27-12,28-34.11C1148.62,1049,1136.83,1036.46,1121.49,1035.58Zm5.08,57.43c-10,0-17.08-9.47-17.21-23-.13-13.9,7.6-24.32,17.76-23.94,8.69.32,17.46,12,17.56,23.34C1144.79,1082.45,1136.7,1093,1126.57,1093Z"/><path class="cls-1" d="M1352.51,999.59c-17.43-14.55-36.93-17.27-54.93-16.33-14.08,0-25.46-.75-36.57,2.41l-.87.25h0c-63.49,13.45-57.55,90-57.55,90,0,1.94.05,3.85.2,5.7a9.34,9.34,0,0,0,.08,4.17,82.54,82.54,0,0,0,4.37,15.47c.3.8.49,1.24.49,1.24h0a98.14,98.14,0,0,0,17.32,27.49,70.87,70.87,0,0,0,20.68,16.28c23.07,11.8,47.09,9.64,71.16,7.81,29.95-2.28,58.76-31.18,65.43-61.63C1390.14,1056.87,1381.78,1024,1352.51,999.59Zm-36.37,124.15c-26.45-.78-46.39-24.08-46.31-55-1.39-30.48,22.44-53.74,47-54.08,24.09-.34,47.22,27.56,47,54.91S1340.71,1124.47,1316.14,1123.74Z"/><path class="cls-1" d="M1317.49,1035.16c-15.64-.9-28.25,14.73-28.25,34,0,18.18,12.45,34.47,27.14,34.11,14.88-.36,28.27-12,28-34.11C1344.62,1048.54,1332.83,1036,1317.49,1035.16Zm5.08,57.43c-10,0-17.08-9.47-17.21-23-.13-13.91,7.59-24.32,17.76-23.94,8.69.32,17.46,12,17.56,23.34C1340.79,1082,1332.69,1092.58,1322.57,1092.59Z"/></svg>